<svg xmlns="http://www.w3.org/2000/svg" xmlns:xlink="http://www.w3.org/1999/xlink" xml:space="preserve" width="360" height="360"><defs><linearGradient id="a"><stop offset="0" style="stop-color:#fff;stop-opacity:1"/><stop offset=".803" style="stop-color:#e1aef7;stop-opacity:1"/><stop offset="1" style="stop-color:#cd87eb;stop-opacity:1"/></linearGradient><linearGradient id="e" x1="16.211" x2="16.211" y1="14.438" y2="29.91" gradientUnits="userSpaceOnUse"><stop stop-color="#5DD8FB"/><stop offset="1" stop-color="#41AEF2"/></linearGradient><linearGradient id="h" x1="16.211" x2="16.211" y1="26.781" y2="27.531" gradientUnits="userSpaceOnUse"><stop stop-color="#1748A6"/><stop offset="1" stop-color="#1748A6" stop-opacity="0"/></linearGradient><linearGradient id="j" x1="12.516" x2="5.266" y1="28.656" y2="21.938" gradientUnits="userSpaceOnUse"><stop offset=".75" stop-color="#B3A9CF"/><stop offset=".932" stop-color="#B6BAC5"/></linearGradient><linearGradient id="l" x1="19.844" x2="27.094" y1="28.656" y2="21.938" gradientUnits="userSpaceOnUse"><stop offset=".717" stop-color="#BBB3D9"/><stop offset=".913" stop-color="#DCDDE8"/></linearGradient><linearGradient id="m" x1="27.976" x2="27.976" y1="8.886" y2="13.327" gradientUnits="userSpaceOnUse"><stop stop-color="#D8DAE2"/><stop offset="1" stop-color="#D8DAE2" stop-opacity="0"/></linearGradient><linearGradient id="n" x1="16.18" x2="17.797" y1="27" y2="25.094" gradientUnits="userSpaceOnUse"><stop stop-color="#A699C9"/><stop offset="1" stop-color="#A699C9" stop-opacity="0"/></linearGradient><linearGradient id="p" x1="4.805" x2="15.328" y1="17.512" y2="17.512" gradientUnits="userSpaceOnUse"><stop stop-color="#F3F1FA"/><stop offset="1" stop-color="#F0EBF9"/></linearGradient><linearGradient id="q" x1="16.18" x2="13.453" y1="25.688" y2="25.688" gradientUnits="userSpaceOnUse"><stop stop-color="#D5CCE8"/><stop offset="1" stop-color="#F2EBFF" stop-opacity="0"/></linearGradient><linearGradient id="r" x1="16.234" x2="16.016" y1="25.906" y2="25.906" gradientUnits="userSpaceOnUse"><stop offset=".179" stop-color="#BFB3D1"/><stop offset="1" stop-color="#BFB3D1" stop-opacity="0"/></linearGradient><linearGradient id="t" x1="16.18" x2="26.703" y1="17.512" y2="17.512" gradientUnits="userSpaceOnUse"><stop stop-color="#F3F1FA"/><stop offset="1" stop-color="#F0EBF9"/></linearGradient><linearGradient id="u" x1="16.18" x2="18.984" y1="25.688" y2="25.688" gradientUnits="userSpaceOnUse"><stop stop-color="#D5CCE8"/><stop offset="1" stop-color="#F2EBFF" stop-opacity="0"/></linearGradient><linearGradient id="v" x1="16.152" x2="16.359" y1="25.906" y2="25.906" gradientUnits="userSpaceOnUse"><stop stop-color="#BFB3D1"/><stop offset="1" stop-color="#BFB3D1" stop-opacity="0"/></linearGradient><filter id="c" width="27.916" height="19.998" x="2.328" y="10.881" color-interpolation-filters="sRGB" filterUnits="userSpaceOnUse"><feFlood flood-opacity="0" result="BackgroundImageFix"/><feBlend in="SourceGraphic" in2="BackgroundImageFix" result="shape"/><feColorMatrix in="SourceAlpha" result="hardAlpha" values="0 0 0 0 0 0 0 0 0 0 0 0 0 0 0 0 0 0 127 0"/><feOffset dx=".15" dy="-.15"/><feGaussianBlur stdDeviation=".25"/><feComposite in2="hardAlpha" k2="-1" k3="1" operator="arithmetic"/><feColorMatrix values="0 0 0 0 0.305882 0 0 0 0 0.541176 0 0 0 0 0.780392 0 0 0 1 0"/><feBlend in2="shape" result="effect1_innerShadow_18_20736"/></filter><filter id="d" width="27.966" height="19.948" x="2.228" y="9.963" color-interpolation-filters="sRGB" filterUnits="userSpaceOnUse"><feFlood flood-opacity="0" result="BackgroundImageFix"/><feBlend in="SourceGraphic" in2="BackgroundImageFix" result="shape"/><feColorMatrix in="SourceAlpha" result="hardAlpha" values="0 0 0 0 0 0 0 0 0 0 0 0 0 0 0 0 0 0 127 0"/><feOffset dx="-.1"/><feGaussianBlur stdDeviation=".15"/><feComposite in2="hardAlpha" k2="-1" k3="1" operator="arithmetic"/><feColorMatrix values="0 0 0 0 0.45098 0 0 0 0 0.941176 0 0 0 0 1 0 0 0 1 0"/><feBlend in2="shape" result="effect1_innerShadow_18_20736"/><feColorMatrix in="SourceAlpha" result="hardAlpha" values="0 0 0 0 0 0 0 0 0 0 0 0 0 0 0 0 0 0 127 0"/><feOffset dx=".1" dy="-.1"/><feGaussianBlur stdDeviation=".15"/><feComposite in2="hardAlpha" k2="-1" k3="1" operator="arithmetic"/><feColorMatrix values="0 0 0 0 0.286275 0 0 0 0 0.666667 0 0 0 0 0.901961 0 0 0 1 0"/><feBlend in2="effect1_innerShadow_18_20736" result="effect2_innerShadow_18_20736"/></filter><filter id="f" width="26.938" height="19.055" x="2.531" y="8.594" color-interpolation-filters="sRGB" filterUnits="userSpaceOnUse"><feFlood flood-opacity="0" result="BackgroundImageFix"/><feBlend in="SourceGraphic" in2="BackgroundImageFix" result="shape"/><feGaussianBlur result="effect1_foregroundBlur_18_20736" stdDeviation=".25"/></filter><filter id="i" width="13.069" height="18.639" x="3.211" y="8.461" color-interpolation-filters="sRGB" filterUnits="userSpaceOnUse"><feFlood flood-opacity="0" result="BackgroundImageFix"/><feBlend in="SourceGraphic" in2="BackgroundImageFix" result="shape"/><feColorMatrix in="SourceAlpha" result="hardAlpha" values="0 0 0 0 0 0 0 0 0 0 0 0 0 0 0 0 0 0 127 0"/><feOffset dx=".1" dy=".1"/><feGaussianBlur stdDeviation=".15"/><feComposite in2="hardAlpha" k2="-1" k3="1" operator="arithmetic"/><feColorMatrix values="0 0 0 0 0.694118 0 0 0 0 0.705882 0 0 0 0 0.733333 0 0 0 1 0"/><feBlend in2="shape" result="effect1_innerShadow_18_20736"/></filter><filter id="k" width="13.069" height="18.639" x="16.18" y="8.461" color-interpolation-filters="sRGB" filterUnits="userSpaceOnUse"><feFlood flood-opacity="0" result="BackgroundImageFix"/><feBlend in="SourceGraphic" in2="BackgroundImageFix" result="shape"/><feColorMatrix in="SourceAlpha" result="hardAlpha" values="0 0 0 0 0 0 0 0 0 0 0 0 0 0 0 0 0 0 127 0"/><feOffset dx=".1" dy=".1"/><feGaussianBlur stdDeviation=".15"/><feComposite in2="hardAlpha" k2="-1" k3="1" operator="arithmetic"/><feColorMatrix values="0 0 0 0 0.831373 0 0 0 0 0.835294 0 0 0 0 0.854902 0 0 0 1 0"/><feBlend in2="shape" result="effect1_innerShadow_18_20736"/></filter><filter id="o" width="11.475" height="19.011" x="4.805" y="8.031" color-interpolation-filters="sRGB" filterUnits="userSpaceOnUse"><feFlood flood-opacity="0" result="BackgroundImageFix"/><feBlend in="SourceGraphic" in2="BackgroundImageFix" result="shape"/><feColorMatrix in="SourceAlpha" result="hardAlpha" values="0 0 0 0 0 0 0 0 0 0 0 0 0 0 0 0 0 0 127 0"/><feOffset dy=".05"/><feGaussianBlur stdDeviation=".15"/><feComposite in2="hardAlpha" k2="-1" k3="1" operator="arithmetic"/><feColorMatrix values="0 0 0 0 0.827451 0 0 0 0 0.819608 0 0 0 0 0.854902 0 0 0 1 0"/><feBlend in2="shape" result="effect1_innerShadow_18_20736"/><feColorMatrix in="SourceAlpha" result="hardAlpha" values="0 0 0 0 0 0 0 0 0 0 0 0 0 0 0 0 0 0 127 0"/><feOffset dx=".1"/><feGaussianBlur stdDeviation=".15"/><feComposite in2="hardAlpha" k2="-1" k3="1" operator="arithmetic"/><feColorMatrix values="0 0 0 0 0.980392 0 0 0 0 0.976471 0 0 0 0 1 0 0 0 1 0"/><feBlend in2="effect1_innerShadow_18_20736" result="effect2_innerShadow_18_20736"/></filter><filter id="s" width="11.475" height="19.011" x="16.08" y="8.031" color-interpolation-filters="sRGB" filterUnits="userSpaceOnUse"><feFlood flood-opacity="0" result="BackgroundImageFix"/><feBlend in="SourceGraphic" in2="BackgroundImageFix" result="shape"/><feColorMatrix in="SourceAlpha" result="hardAlpha" values="0 0 0 0 0 0 0 0 0 0 0 0 0 0 0 0 0 0 127 0"/><feOffset dx="-.1"/><feGaussianBlur stdDeviation=".15"/><feComposite in2="hardAlpha" k2="-1" k3="1" operator="arithmetic"/><feColorMatrix values="0 0 0 0 0.980392 0 0 0 0 0.976471 0 0 0 0 1 0 0 0 1 0"/><feBlend in2="shape" result="effect1_innerShadow_18_20736"/><feColorMatrix in="SourceAlpha" result="hardAlpha" values="0 0 0 0 0 0 0 0 0 0 0 0 0 0 0 0 0 0 127 0"/><feOffset dy=".05"/><feGaussianBlur stdDeviation=".15"/><feComposite in2="hardAlpha" k2="-1" k3="1" operator="arithmetic"/><feColorMatrix values="0 0 0 0 0.827451 0 0 0 0 0.819608 0 0 0 0 0.854902 0 0 0 1 0"/><feBlend in2="effect1_innerShadow_18_20736" result="effect2_innerShadow_18_20736"/></filter><radialGradient id="g" cx="0" cy="0" r="1" gradientTransform="matrix(2 -1 1.40312 2.80625 15.375 28.531)" gradientUnits="userSpaceOnUse"><stop offset=".232" stop-color="#306AB3"/><stop offset="1" stop-color="#1A4CA8"/></radialGradient><radialGradient xlink:href="#a" id="b" cx="2417.686" cy="351.564" r="180" fx="2417.686" fy="351.564" gradientTransform="matrix(.94444 0 0 .94444 -103.37 -152.033)" gradientUnits="userSpaceOnUse"/></defs><g transform="translate(-2000)"><circle cx="2180" cy="180" r="170" style="opacity:1;fill:url(#b);stroke:#fff;stroke-width:20;stroke-linecap:round;stroke-linejoin:round;stroke-dasharray:none;paint-order:stroke markers fill"/><g fill="none"><g filter="url(#c)" transform="matrix(7.85266 0 0 7.85266 2052.504 26.935)"><path fill="#3e6aca" d="M3.578 11.031c-.69 0-1.25.56-1.25 1.25v16.39c0 .691.56 1.25 1.25 1.25h11.005a1.863 1.863 0 0 0 3.256 0h11.005c.69 0 1.25-.559 1.25-1.25v-16.39c0-.69-.56-1.25-1.25-1.25z"/></g><g filter="url(#d)" transform="matrix(7.85266 0 0 7.85266 2052.504 26.935)"><path fill="url(#e)" d="M3.578 10.063c-.69 0-1.25.56-1.25 1.25v16.39c0 .69.56 1.25 1.25 1.25h11.005a1.863 1.863 0 0 0 3.256 0h11.005c.69 0 1.25-.56 1.25-1.25v-16.39c0-.69-.56-1.25-1.25-1.25z" style="fill:url(#e)"/></g><g filter="url(#f)" transform="matrix(7.85266 0 0 7.85266 2052.504 26.935)"><path fill="#3f9bea" d="m4.81 9.094-1.565 1.941a.96.96 0 0 0-.214.602V25.93c0 .672.56 1.217 1.25 1.217H27.72c.69 0 1.25-.545 1.25-1.217V11.637a.96.96 0 0 0-.214-.602L27.19 9.094 25.348 23.74H6.652Z"/></g><path fill="url(#g)" d="M14.773 25.703h2.875v1.578a1.438 1.438 0 1 1-2.875 0z" style="fill:url(#g)" transform="matrix(7.85266 0 0 7.85266 2052.504 26.935)"/><path fill="url(#h)" d="M14.773 25.703h2.875v1.578a1.438 1.438 0 1 1-2.875 0z" style="fill:url(#h)" transform="matrix(7.85266 0 0 7.85266 2052.504 26.935)"/><g filter="url(#i)" transform="matrix(7.85266 0 0 7.85266 2052.504 26.935)"><path fill="url(#j)" d="M3.424 10.455 4.99 8.46 6.832 23.5h9.348V27H4.46c-.69 0-1.25-.56-1.25-1.25V11.072a1 1 0 0 1 .214-.617" style="fill:url(#j)"/></g><g filter="url(#k)" transform="matrix(7.85266 0 0 7.85266 2052.504 26.935)"><path fill="url(#l)" d="M28.935 10.455 27.369 8.46 25.528 23.5H16.18V27h11.718c.69 0 1.25-.56 1.25-1.25V11.072a1 1 0 0 0-.213-.617" style="fill:url(#l)"/><path fill="url(#m)" d="M28.935 10.455 27.369 8.46 25.528 23.5H16.18V27h11.718c.69 0 1.25-.56 1.25-1.25V11.072a1 1 0 0 0-.213-.617" style="fill:url(#m)"/></g><path fill="url(#n)" d="M28.935 10.455 27.369 8.46 25.528 23.5H16.18V27h11.718c.69 0 1.25-.56 1.25-1.25V11.072a1 1 0 0 0-.213-.617" style="fill:url(#n)" transform="matrix(7.85266 0 0 7.85266 2052.504 26.935)"/><g filter="url(#o)" transform="matrix(7.85266 0 0 7.85266 2052.504 26.935)"><path fill="url(#p)" d="M4.805 9.031a1 1 0 0 1 1-1h7.875a2.5 2.5 0 0 1 2.5 2.5v16.461c0-1.1-1.133-1.992-2.446-1.992h-7.68c-.69 0-1.25-.56-1.25-1.25z" style="fill:url(#p)"/><path fill="url(#q)" d="M4.805 9.031a1 1 0 0 1 1-1h7.875a2.5 2.5 0 0 1 2.5 2.5v16.461c0-1.1-1.133-1.992-2.446-1.992h-7.68c-.69 0-1.25-.56-1.25-1.25z" style="fill:url(#q)"/><path fill="url(#r)" d="M4.805 9.031a1 1 0 0 1 1-1h7.875a2.5 2.5 0 0 1 2.5 2.5v16.461c0-1.1-1.133-1.992-2.446-1.992h-7.68c-.69 0-1.25-.56-1.25-1.25z" style="fill:url(#r)"/></g><g filter="url(#s)" transform="matrix(7.85266 0 0 7.85266 2052.504 26.935)"><path fill="url(#t)" d="M27.555 9.031a1 1 0 0 0-1-1H18.68a2.5 2.5 0 0 0-2.5 2.5v16.461c0-1.1 1.133-1.992 2.445-1.992h7.68c.69 0 1.25-.56 1.25-1.25z" style="fill:url(#t)"/><path fill="url(#u)" d="M27.555 9.031a1 1 0 0 0-1-1H18.68a2.5 2.5 0 0 0-2.5 2.5v16.461c0-1.1 1.133-1.992 2.445-1.992h7.68c.69 0 1.25-.56 1.25-1.25z" style="fill:url(#u)"/><path fill="url(#v)" d="M27.555 9.031a1 1 0 0 0-1-1H18.68a2.5 2.5 0 0 0-2.5 2.5v16.461c0-1.1 1.133-1.992 2.445-1.992h7.68c.69 0 1.25-.56 1.25-1.25z" style="fill:url(#v)"/></g></g></g></svg>